<svg xmlns="http://www.w3.org/2000/svg" viewBox="0 0 300 220" role="img" aria-label="LDPC Code with Cohomology">
  <rect width="300" height="220" rx="8" fill="#ffffff"/>
  <rect x="12" y="12" width="276" height="196" rx="8" fill="url(#ma-fallback-bg)" opacity="0.9"/>
  <defs>
    <radialGradient id="ma-fallback-bg" cx="25%" cy="78%" r="58%">
      <stop offset="0%" stop-color="#f0fdfa"/>
      <stop offset="58%" stop-color="#ffffff"/>
      <stop offset="100%" stop-color="#fff7ed"/>
    </radialGradient>
  </defs>
  <rect x="40.52" y="61.52" width="19.63" height="19.63" rx="5" fill="#f0fdfa" fill-opacity="0.46" stroke="#99f6e4" stroke-width="1"/>
  <rect x="71.19" y="61.52" width="19.63" height="19.63" rx="5" fill="#f0fdfa" fill-opacity="0.46" stroke="#99f6e4" stroke-width="1"/>
  <rect x="101.85" y="61.52" width="19.63" height="19.63" rx="5" fill="#f0fdfa" fill-opacity="0.46" stroke="#99f6e4" stroke-width="1"/>
  <rect x="40.52" y="92.19" width="19.63" height="19.63" rx="5" fill="#f0fdfa" fill-opacity="0.46" stroke="#99f6e4" stroke-width="1"/>
  <rect x="71.19" y="92.19" width="19.63" height="19.63" rx="5" fill="#f0fdfa" fill-opacity="0.46" stroke="#99f6e4" stroke-width="1"/>
  <rect x="101.85" y="92.19" width="19.63" height="19.63" rx="5" fill="#f0fdfa" fill-opacity="0.46" stroke="#99f6e4" stroke-width="1"/>
  <rect x="40.52" y="122.85" width="19.63" height="19.63" rx="5" fill="#f0fdfa" fill-opacity="0.46" stroke="#99f6e4" stroke-width="1"/>
  <rect x="71.19" y="122.85" width="19.63" height="19.63" rx="5" fill="#f0fdfa" fill-opacity="0.46" stroke="#99f6e4" stroke-width="1"/>
  <rect x="101.85" y="122.85" width="19.63" height="19.63" rx="5" fill="#f0fdfa" fill-opacity="0.46" stroke="#99f6e4" stroke-width="1"/>
  <path d="M35.00 56.00L81.00 56.00" fill="none" stroke="#93c5fd" stroke-width="1.2"/>
  <path d="M81.00 56.00L127.00 56.00" fill="none" stroke="#93c5fd" stroke-width="1.2"/>
  <path d="M127.00 56.00Q63.00 28.00 35.00 56.00" fill="none" stroke="#93c5fd" stroke-width="1.2"/>
  <path d="M35.00 102.00L81.00 102.00" fill="none" stroke="#93c5fd" stroke-width="1.2"/>
  <path d="M81.00 102.00L127.00 102.00" fill="none" stroke="#93c5fd" stroke-width="1.2"/>
  <path d="M127.00 102.00Q63.00 74.00 35.00 102.00" fill="none" stroke="#93c5fd" stroke-width="1.2"/>
  <path d="M35.00 148.00L81.00 148.00" fill="none" stroke="#93c5fd" stroke-width="1.2"/>
  <path d="M81.00 148.00L127.00 148.00" fill="none" stroke="#93c5fd" stroke-width="1.2"/>
  <path d="M127.00 148.00Q63.00 120.00 35.00 148.00" fill="none" stroke="#93c5fd" stroke-width="1.2"/>
  <path d="M35.00 56.00L35.00 102.00" fill="none" stroke="#cbd5e1" stroke-width="1.2"/>
  <path d="M81.00 56.00L81.00 102.00" fill="none" stroke="#cbd5e1" stroke-width="1.2"/>
  <path d="M127.00 56.00L127.00 102.00" fill="none" stroke="#cbd5e1" stroke-width="1.2"/>
  <path d="M35.00 102.00L35.00 148.00" fill="none" stroke="#cbd5e1" stroke-width="1.2"/>
  <path d="M81.00 102.00L81.00 148.00" fill="none" stroke="#cbd5e1" stroke-width="1.2"/>
  <path d="M127.00 102.00L127.00 148.00" fill="none" stroke="#cbd5e1" stroke-width="1.2"/>
  <path d="M35.00 148.00Q17.00 74.00 35.00 56.00" fill="none" stroke="#cbd5e1" stroke-width="1.2"/>
  <path d="M81.00 148.00Q63.00 74.00 81.00 56.00" fill="none" stroke="#cbd5e1" stroke-width="1.2"/>
  <path d="M127.00 148.00Q109.00 74.00 127.00 56.00" fill="none" stroke="#cbd5e1" stroke-width="1.2"/>
  <circle cx="35.00" cy="56.00" r="3.4" fill="#1e3a5f" stroke="#fff" stroke-width="1"/>
  <circle cx="81.00" cy="56.00" r="3.4" fill="#1e3a5f" stroke="#fff" stroke-width="1"/>
  <circle cx="127.00" cy="56.00" r="3.4" fill="#1e3a5f" stroke="#fff" stroke-width="1"/>
  <circle cx="35.00" cy="102.00" r="3.4" fill="#1e3a5f" stroke="#fff" stroke-width="1"/>
  <circle cx="81.00" cy="102.00" r="3.4" fill="#1e3a5f" stroke="#fff" stroke-width="1"/>
  <circle cx="127.00" cy="102.00" r="3.4" fill="#1e3a5f" stroke="#fff" stroke-width="1"/>
  <circle cx="35.00" cy="148.00" r="3.4" fill="#1e3a5f" stroke="#fff" stroke-width="1"/>
  <circle cx="81.00" cy="148.00" r="3.4" fill="#1e3a5f" stroke="#fff" stroke-width="1"/>
  <circle cx="127.00" cy="148.00" r="3.4" fill="#1e3a5f" stroke="#fff" stroke-width="1"/>
  <rect x="174.00" y="52.00" width="5.00" height="5.00" fill="#2563eb" opacity="0.9" stroke="#e2e8f0" stroke-width="0.5"/><rect x="179.80" y="52.00" width="5.00" height="5.00" fill="#f8fafc" opacity="0.35" stroke="#e2e8f0" stroke-width="0.5"/><rect x="185.60" y="52.00" width="5.00" height="5.00" fill="#2563eb" opacity="0.9" stroke="#e2e8f0" stroke-width="0.5"/><rect x="191.40" y="52.00" width="5.00" height="5.00" fill="#f8fafc" opacity="0.35" stroke="#e2e8f0" stroke-width="0.5"/><rect x="197.20" y="52.00" width="5.00" height="5.00" fill="#f8fafc" opacity="0.35" stroke="#e2e8f0" stroke-width="0.5"/><rect x="203.00" y="52.00" width="5.00" height="5.00" fill="#f8fafc" opacity="0.35" stroke="#e2e8f0" stroke-width="0.5"/><rect x="208.80" y="52.00" width="5.00" height="5.00" fill="#f8fafc" opacity="0.35" stroke="#e2e8f0" stroke-width="0.5"/><rect x="214.60" y="52.00" width="5.00" height="5.00" fill="#f8fafc" opacity="0.35" stroke="#e2e8f0" stroke-width="0.5"/><rect x="220.40" y="52.00" width="5.00" height="5.00" fill="#f8fafc" opacity="0.35" stroke="#e2e8f0" stroke-width="0.5"/><rect x="226.20" y="52.00" width="5.00" height="5.00" fill="#2563eb" opacity="0.9" stroke="#e2e8f0" stroke-width="0.5"/><rect x="232.00" y="52.00" width="5.00" height="5.00" fill="#f8fafc" opacity="0.35" stroke="#e2e8f0" stroke-width="0.5"/><rect x="237.80" y="52.00" width="5.00" height="5.00" fill="#f8fafc" opacity="0.35" stroke="#e2e8f0" stroke-width="0.5"/><rect x="243.60" y="52.00" width="5.00" height="5.00" fill="#f8fafc" opacity="0.35" stroke="#e2e8f0" stroke-width="0.5"/><rect x="249.40" y="52.00" width="5.00" height="5.00" fill="#f8fafc" opacity="0.35" stroke="#e2e8f0" stroke-width="0.5"/><rect x="255.20" y="52.00" width="5.00" height="5.00" fill="#f8fafc" opacity="0.35" stroke="#e2e8f0" stroke-width="0.5"/><rect x="261.00" y="52.00" width="5.00" height="5.00" fill="#2563eb" opacity="0.9" stroke="#e2e8f0" stroke-width="0.5"/><rect x="266.80" y="52.00" width="5.00" height="5.00" fill="#f8fafc" opacity="0.35" stroke="#e2e8f0" stroke-width="0.5"/><rect x="272.60" y="52.00" width="5.00" height="5.00" fill="#f8fafc" opacity="0.35" stroke="#e2e8f0" stroke-width="0.5"/><rect x="174.00" y="57.80" width="5.00" height="5.00" fill="#2563eb" opacity="0.9" stroke="#e2e8f0" stroke-width="0.5"/><rect x="179.80" y="57.80" width="5.00" height="5.00" fill="#2563eb" opacity="0.9" stroke="#e2e8f0" stroke-width="0.5"/><rect x="185.60" y="57.80" width="5.00" height="5.00" fill="#f8fafc" opacity="0.35" stroke="#e2e8f0" stroke-width="0.5"/><rect x="191.40" y="57.80" width="5.00" height="5.00" fill="#f8fafc" opacity="0.35" stroke="#e2e8f0" stroke-width="0.5"/><rect x="197.20" y="57.80" width="5.00" height="5.00" fill="#f8fafc" opacity="0.35" stroke="#e2e8f0" stroke-width="0.5"/><rect x="203.00" y="57.80" width="5.00" height="5.00" fill="#f8fafc" opacity="0.35" stroke="#e2e8f0" stroke-width="0.5"/><rect x="208.80" y="57.80" width="5.00" height="5.00" fill="#f8fafc" opacity="0.35" stroke="#e2e8f0" stroke-width="0.5"/><rect x="214.60" y="57.80" width="5.00" height="5.00" fill="#f8fafc" opacity="0.35" stroke="#e2e8f0" stroke-width="0.5"/><rect x="220.40" y="57.80" width="5.00" height="5.00" fill="#f8fafc" opacity="0.35" stroke="#e2e8f0" stroke-width="0.5"/><rect x="226.20" y="57.80" width="5.00" height="5.00" fill="#f8fafc" opacity="0.35" stroke="#e2e8f0" stroke-width="0.5"/><rect x="232.00" y="57.80" width="5.00" height="5.00" fill="#2563eb" opacity="0.9" stroke="#e2e8f0" stroke-width="0.5"/><rect x="237.80" y="57.80" width="5.00" height="5.00" fill="#f8fafc" opacity="0.35" stroke="#e2e8f0" stroke-width="0.5"/><rect x="243.60" y="57.80" width="5.00" height="5.00" fill="#f8fafc" opacity="0.35" stroke="#e2e8f0" stroke-width="0.5"/><rect x="249.40" y="57.80" width="5.00" height="5.00" fill="#f8fafc" opacity="0.35" stroke="#e2e8f0" stroke-width="0.5"/><rect x="255.20" y="57.80" width="5.00" height="5.00" fill="#f8fafc" opacity="0.35" stroke="#e2e8f0" stroke-width="0.5"/><rect x="261.00" y="57.80" width="5.00" height="5.00" fill="#f8fafc" opacity="0.35" stroke="#e2e8f0" stroke-width="0.5"/><rect x="266.80" y="57.80" width="5.00" height="5.00" fill="#2563eb" opacity="0.9" stroke="#e2e8f0" stroke-width="0.5"/><rect x="272.60" y="57.80" width="5.00" height="5.00" fill="#f8fafc" opacity="0.35" stroke="#e2e8f0" stroke-width="0.5"/><rect x="174.00" y="63.60" width="5.00" height="5.00" fill="#f8fafc" opacity="0.35" stroke="#e2e8f0" stroke-width="0.5"/><rect x="179.80" y="63.60" width="5.00" height="5.00" fill="#2563eb" opacity="0.9" stroke="#e2e8f0" stroke-width="0.5"/><rect x="185.60" y="63.60" width="5.00" height="5.00" fill="#2563eb" opacity="0.9" stroke="#e2e8f0" stroke-width="0.5"/><rect x="191.40" y="63.60" width="5.00" height="5.00" fill="#f8fafc" opacity="0.35" stroke="#e2e8f0" stroke-width="0.5"/><rect x="197.20" y="63.60" width="5.00" height="5.00" fill="#f8fafc" opacity="0.35" stroke="#e2e8f0" stroke-width="0.5"/><rect x="203.00" y="63.60" width="5.00" height="5.00" fill="#f8fafc" opacity="0.35" stroke="#e2e8f0" stroke-width="0.5"/><rect x="208.80" y="63.60" width="5.00" height="5.00" fill="#f8fafc" opacity="0.35" stroke="#e2e8f0" stroke-width="0.5"/><rect x="214.60" y="63.60" width="5.00" height="5.00" fill="#f8fafc" opacity="0.35" stroke="#e2e8f0" stroke-width="0.5"/><rect x="220.40" y="63.60" width="5.00" height="5.00" fill="#f8fafc" opacity="0.35" stroke="#e2e8f0" stroke-width="0.5"/><rect x="226.20" y="63.60" width="5.00" height="5.00" fill="#f8fafc" opacity="0.35" stroke="#e2e8f0" stroke-width="0.5"/><rect x="232.00" y="63.60" width="5.00" height="5.00" fill="#f8fafc" opacity="0.35" stroke="#e2e8f0" stroke-width="0.5"/><rect x="237.80" y="63.60" width="5.00" height="5.00" fill="#2563eb" opacity="0.9" stroke="#e2e8f0" stroke-width="0.5"/><rect x="243.60" y="63.60" width="5.00" height="5.00" fill="#f8fafc" opacity="0.35" stroke="#e2e8f0" stroke-width="0.5"/><rect x="249.40" y="63.60" width="5.00" height="5.00" fill="#f8fafc" opacity="0.35" stroke="#e2e8f0" stroke-width="0.5"/><rect x="255.20" y="63.60" width="5.00" height="5.00" fill="#f8fafc" opacity="0.35" stroke="#e2e8f0" stroke-width="0.5"/><rect x="261.00" y="63.60" width="5.00" height="5.00" fill="#f8fafc" opacity="0.35" stroke="#e2e8f0" stroke-width="0.5"/><rect x="266.80" y="63.60" width="5.00" height="5.00" fill="#f8fafc" opacity="0.35" stroke="#e2e8f0" stroke-width="0.5"/><rect x="272.60" y="63.60" width="5.00" height="5.00" fill="#2563eb" opacity="0.9" stroke="#e2e8f0" stroke-width="0.5"/><rect x="174.00" y="69.40" width="5.00" height="5.00" fill="#f8fafc" opacity="0.35" stroke="#e2e8f0" stroke-width="0.5"/><rect x="179.80" y="69.40" width="5.00" height="5.00" fill="#f8fafc" opacity="0.35" stroke="#e2e8f0" stroke-width="0.5"/><rect x="185.60" y="69.40" width="5.00" height="5.00" fill="#f8fafc" opacity="0.35" stroke="#e2e8f0" stroke-width="0.5"/><rect x="191.40" y="69.40" width="5.00" height="5.00" fill="#2563eb" opacity="0.9" stroke="#e2e8f0" stroke-width="0.5"/><rect x="197.20" y="69.40" width="5.00" height="5.00" fill="#f8fafc" opacity="0.35" stroke="#e2e8f0" stroke-width="0.5"/><rect x="203.00" y="69.40" width="5.00" height="5.00" fill="#2563eb" opacity="0.9" stroke="#e2e8f0" stroke-width="0.5"/><rect x="208.80" y="69.40" width="5.00" height="5.00" fill="#f8fafc" opacity="0.35" stroke="#e2e8f0" stroke-width="0.5"/><rect x="214.60" y="69.40" width="5.00" height="5.00" fill="#f8fafc" opacity="0.35" stroke="#e2e8f0" stroke-width="0.5"/><rect x="220.40" y="69.40" width="5.00" height="5.00" fill="#f8fafc" opacity="0.35" stroke="#e2e8f0" stroke-width="0.5"/><rect x="226.20" y="69.40" width="5.00" height="5.00" fill="#2563eb" opacity="0.9" stroke="#e2e8f0" stroke-width="0.5"/><rect x="232.00" y="69.40" width="5.00" height="5.00" fill="#f8fafc" opacity="0.35" stroke="#e2e8f0" stroke-width="0.5"/><rect x="237.80" y="69.40" width="5.00" height="5.00" fill="#f8fafc" opacity="0.35" stroke="#e2e8f0" stroke-width="0.5"/><rect x="243.60" y="69.40" width="5.00" height="5.00" fill="#2563eb" opacity="0.9" stroke="#e2e8f0" stroke-width="0.5"/><rect x="249.40" y="69.40" width="5.00" height="5.00" fill="#f8fafc" opacity="0.35" stroke="#e2e8f0" stroke-width="0.5"/><rect x="255.20" y="69.40" width="5.00" height="5.00" fill="#f8fafc" opacity="0.35" stroke="#e2e8f0" stroke-width="0.5"/><rect x="261.00" y="69.40" width="5.00" height="5.00" fill="#f8fafc" opacity="0.35" stroke="#e2e8f0" stroke-width="0.5"/><rect x="266.80" y="69.40" width="5.00" height="5.00" fill="#f8fafc" opacity="0.35" stroke="#e2e8f0" stroke-width="0.5"/><rect x="272.60" y="69.40" width="5.00" height="5.00" fill="#f8fafc" opacity="0.35" stroke="#e2e8f0" stroke-width="0.5"/><rect x="174.00" y="75.20" width="5.00" height="5.00" fill="#f8fafc" opacity="0.35" stroke="#e2e8f0" stroke-width="0.5"/><rect x="179.80" y="75.20" width="5.00" height="5.00" fill="#f8fafc" opacity="0.35" stroke="#e2e8f0" stroke-width="0.5"/><rect x="185.60" y="75.20" width="5.00" height="5.00" fill="#f8fafc" opacity="0.35" stroke="#e2e8f0" stroke-width="0.5"/><rect x="191.40" y="75.20" width="5.00" height="5.00" fill="#2563eb" opacity="0.9" stroke="#e2e8f0" stroke-width="0.5"/><rect x="197.20" y="75.20" width="5.00" height="5.00" fill="#2563eb" opacity="0.9" stroke="#e2e8f0" stroke-width="0.5"/><rect x="203.00" y="75.20" width="5.00" height="5.00" fill="#f8fafc" opacity="0.35" stroke="#e2e8f0" stroke-width="0.5"/><rect x="208.80" y="75.20" width="5.00" height="5.00" fill="#f8fafc" opacity="0.35" stroke="#e2e8f0" stroke-width="0.5"/><rect x="214.60" y="75.20" width="5.00" height="5.00" fill="#f8fafc" opacity="0.35" stroke="#e2e8f0" stroke-width="0.5"/><rect x="220.40" y="75.20" width="5.00" height="5.00" fill="#f8fafc" opacity="0.35" stroke="#e2e8f0" stroke-width="0.5"/><rect x="226.20" y="75.20" width="5.00" height="5.00" fill="#f8fafc" opacity="0.35" stroke="#e2e8f0" stroke-width="0.5"/><rect x="232.00" y="75.20" width="5.00" height="5.00" fill="#2563eb" opacity="0.9" stroke="#e2e8f0" stroke-width="0.5"/><rect x="237.80" y="75.20" width="5.00" height="5.00" fill="#f8fafc" opacity="0.35" stroke="#e2e8f0" stroke-width="0.5"/><rect x="243.60" y="75.20" width="5.00" height="5.00" fill="#f8fafc" opacity="0.35" stroke="#e2e8f0" stroke-width="0.5"/><rect x="249.40" y="75.20" width="5.00" height="5.00" fill="#2563eb" opacity="0.9" stroke="#e2e8f0" stroke-width="0.5"/><rect x="255.20" y="75.20" width="5.00" height="5.00" fill="#f8fafc" opacity="0.35" stroke="#e2e8f0" stroke-width="0.5"/><rect x="261.00" y="75.20" width="5.00" height="5.00" fill="#f8fafc" opacity="0.35" stroke="#e2e8f0" stroke-width="0.5"/><rect x="266.80" y="75.20" width="5.00" height="5.00" fill="#f8fafc" opacity="0.35" stroke="#e2e8f0" stroke-width="0.5"/><rect x="272.60" y="75.20" width="5.00" height="5.00" fill="#f8fafc" opacity="0.35" stroke="#e2e8f0" stroke-width="0.5"/><rect x="174.00" y="81.00" width="5.00" height="5.00" fill="#f8fafc" opacity="0.35" stroke="#e2e8f0" stroke-width="0.5"/><rect x="179.80" y="81.00" width="5.00" height="5.00" fill="#f8fafc" opacity="0.35" stroke="#e2e8f0" stroke-width="0.5"/><rect x="185.60" y="81.00" width="5.00" height="5.00" fill="#f8fafc" opacity="0.35" stroke="#e2e8f0" stroke-width="0.5"/><rect x="191.40" y="81.00" width="5.00" height="5.00" fill="#f8fafc" opacity="0.35" stroke="#e2e8f0" stroke-width="0.5"/><rect x="197.20" y="81.00" width="5.00" height="5.00" fill="#2563eb" opacity="0.9" stroke="#e2e8f0" stroke-width="0.5"/><rect x="203.00" y="81.00" width="5.00" height="5.00" fill="#2563eb" opacity="0.9" stroke="#e2e8f0" stroke-width="0.5"/><rect x="208.80" y="81.00" width="5.00" height="5.00" fill="#f8fafc" opacity="0.35" stroke="#e2e8f0" stroke-width="0.5"/><rect x="214.60" y="81.00" width="5.00" height="5.00" fill="#f8fafc" opacity="0.35" stroke="#e2e8f0" stroke-width="0.5"/><rect x="220.40" y="81.00" width="5.00" height="5.00" fill="#f8fafc" opacity="0.35" stroke="#e2e8f0" stroke-width="0.5"/><rect x="226.20" y="81.00" width="5.00" height="5.00" fill="#f8fafc" opacity="0.35" stroke="#e2e8f0" stroke-width="0.5"/><rect x="232.00" y="81.00" width="5.00" height="5.00" fill="#f8fafc" opacity="0.35" stroke="#e2e8f0" stroke-width="0.5"/><rect x="237.80" y="81.00" width="5.00" height="5.00" fill="#2563eb" opacity="0.9" stroke="#e2e8f0" stroke-width="0.5"/><rect x="243.60" y="81.00" width="5.00" height="5.00" fill="#f8fafc" opacity="0.35" stroke="#e2e8f0" stroke-width="0.5"/><rect x="249.40" y="81.00" width="5.00" height="5.00" fill="#f8fafc" opacity="0.35" stroke="#e2e8f0" stroke-width="0.5"/><rect x="255.20" y="81.00" width="5.00" height="5.00" fill="#2563eb" opacity="0.9" stroke="#e2e8f0" stroke-width="0.5"/><rect x="261.00" y="81.00" width="5.00" height="5.00" fill="#f8fafc" opacity="0.35" stroke="#e2e8f0" stroke-width="0.5"/><rect x="266.80" y="81.00" width="5.00" height="5.00" fill="#f8fafc" opacity="0.35" stroke="#e2e8f0" stroke-width="0.5"/><rect x="272.60" y="81.00" width="5.00" height="5.00" fill="#f8fafc" opacity="0.35" stroke="#e2e8f0" stroke-width="0.5"/><rect x="174.00" y="86.80" width="5.00" height="5.00" fill="#f8fafc" opacity="0.35" stroke="#e2e8f0" stroke-width="0.5"/><rect x="179.80" y="86.80" width="5.00" height="5.00" fill="#f8fafc" opacity="0.35" stroke="#e2e8f0" stroke-width="0.5"/><rect x="185.60" y="86.80" width="5.00" height="5.00" fill="#f8fafc" opacity="0.35" stroke="#e2e8f0" stroke-width="0.5"/><rect x="191.40" y="86.80" width="5.00" height="5.00" fill="#f8fafc" opacity="0.35" stroke="#e2e8f0" stroke-width="0.5"/><rect x="197.20" y="86.80" width="5.00" height="5.00" fill="#f8fafc" opacity="0.35" stroke="#e2e8f0" stroke-width="0.5"/><rect x="203.00" y="86.80" width="5.00" height="5.00" fill="#f8fafc" opacity="0.35" stroke="#e2e8f0" stroke-width="0.5"/><rect x="208.80" y="86.80" width="5.00" height="5.00" fill="#2563eb" opacity="0.9" stroke="#e2e8f0" stroke-width="0.5"/><rect x="214.60" y="86.80" width="5.00" height="5.00" fill="#f8fafc" opacity="0.35" stroke="#e2e8f0" stroke-width="0.5"/><rect x="220.40" y="86.80" width="5.00" height="5.00" fill="#2563eb" opacity="0.9" stroke="#e2e8f0" stroke-width="0.5"/><rect x="226.20" y="86.80" width="5.00" height="5.00" fill="#f8fafc" opacity="0.35" stroke="#e2e8f0" stroke-width="0.5"/><rect x="232.00" y="86.80" width="5.00" height="5.00" fill="#f8fafc" opacity="0.35" stroke="#e2e8f0" stroke-width="0.5"/><rect x="237.80" y="86.80" width="5.00" height="5.00" fill="#f8fafc" opacity="0.35" stroke="#e2e8f0" stroke-width="0.5"/><rect x="243.60" y="86.80" width="5.00" height="5.00" fill="#2563eb" opacity="0.9" stroke="#e2e8f0" stroke-width="0.5"/><rect x="249.40" y="86.80" width="5.00" height="5.00" fill="#f8fafc" opacity="0.35" stroke="#e2e8f0" stroke-width="0.5"/><rect x="255.20" y="86.80" width="5.00" height="5.00" fill="#f8fafc" opacity="0.35" stroke="#e2e8f0" stroke-width="0.5"/><rect x="261.00" y="86.80" width="5.00" height="5.00" fill="#2563eb" opacity="0.9" stroke="#e2e8f0" stroke-width="0.5"/><rect x="266.80" y="86.80" width="5.00" height="5.00" fill="#f8fafc" opacity="0.35" stroke="#e2e8f0" stroke-width="0.5"/><rect x="272.60" y="86.80" width="5.00" height="5.00" fill="#f8fafc" opacity="0.35" stroke="#e2e8f0" stroke-width="0.5"/><rect x="174.00" y="92.60" width="5.00" height="5.00" fill="#f8fafc" opacity="0.35" stroke="#e2e8f0" stroke-width="0.5"/><rect x="179.80" y="92.60" width="5.00" height="5.00" fill="#f8fafc" opacity="0.35" stroke="#e2e8f0" stroke-width="0.5"/><rect x="185.60" y="92.60" width="5.00" height="5.00" fill="#f8fafc" opacity="0.35" stroke="#e2e8f0" stroke-width="0.5"/><rect x="191.40" y="92.60" width="5.00" height="5.00" fill="#f8fafc" opacity="0.35" stroke="#e2e8f0" stroke-width="0.5"/><rect x="197.20" y="92.60" width="5.00" height="5.00" fill="#f8fafc" opacity="0.35" stroke="#e2e8f0" stroke-width="0.5"/><rect x="203.00" y="92.60" width="5.00" height="5.00" fill="#f8fafc" opacity="0.35" stroke="#e2e8f0" stroke-width="0.5"/><rect x="208.80" y="92.60" width="5.00" height="5.00" fill="#2563eb" opacity="0.9" stroke="#e2e8f0" stroke-width="0.5"/><rect x="214.60" y="92.60" width="5.00" height="5.00" fill="#2563eb" opacity="0.9" stroke="#e2e8f0" stroke-width="0.5"/><rect x="220.40" y="92.60" width="5.00" height="5.00" fill="#f8fafc" opacity="0.35" stroke="#e2e8f0" stroke-width="0.5"/><rect x="226.20" y="92.60" width="5.00" height="5.00" fill="#f8fafc" opacity="0.35" stroke="#e2e8f0" stroke-width="0.5"/><rect x="232.00" y="92.60" width="5.00" height="5.00" fill="#f8fafc" opacity="0.35" stroke="#e2e8f0" stroke-width="0.5"/><rect x="237.80" y="92.60" width="5.00" height="5.00" fill="#f8fafc" opacity="0.35" stroke="#e2e8f0" stroke-width="0.5"/><rect x="243.60" y="92.60" width="5.00" height="5.00" fill="#f8fafc" opacity="0.35" stroke="#e2e8f0" stroke-width="0.5"/><rect x="249.40" y="92.60" width="5.00" height="5.00" fill="#2563eb" opacity="0.9" stroke="#e2e8f0" stroke-width="0.5"/><rect x="255.20" y="92.60" width="5.00" height="5.00" fill="#f8fafc" opacity="0.35" stroke="#e2e8f0" stroke-width="0.5"/><rect x="261.00" y="92.60" width="5.00" height="5.00" fill="#f8fafc" opacity="0.35" stroke="#e2e8f0" stroke-width="0.5"/><rect x="266.80" y="92.60" width="5.00" height="5.00" fill="#2563eb" opacity="0.9" stroke="#e2e8f0" stroke-width="0.5"/><rect x="272.60" y="92.60" width="5.00" height="5.00" fill="#f8fafc" opacity="0.35" stroke="#e2e8f0" stroke-width="0.5"/><rect x="174.00" y="98.40" width="5.00" height="5.00" fill="#f8fafc" opacity="0.35" stroke="#e2e8f0" stroke-width="0.5"/><rect x="179.80" y="98.40" width="5.00" height="5.00" fill="#f8fafc" opacity="0.35" stroke="#e2e8f0" stroke-width="0.5"/><rect x="185.60" y="98.40" width="5.00" height="5.00" fill="#f8fafc" opacity="0.35" stroke="#e2e8f0" stroke-width="0.5"/><rect x="191.40" y="98.40" width="5.00" height="5.00" fill="#f8fafc" opacity="0.35" stroke="#e2e8f0" stroke-width="0.5"/><rect x="197.20" y="98.40" width="5.00" height="5.00" fill="#f8fafc" opacity="0.35" stroke="#e2e8f0" stroke-width="0.5"/><rect x="203.00" y="98.40" width="5.00" height="5.00" fill="#f8fafc" opacity="0.35" stroke="#e2e8f0" stroke-width="0.5"/><rect x="208.80" y="98.40" width="5.00" height="5.00" fill="#f8fafc" opacity="0.35" stroke="#e2e8f0" stroke-width="0.5"/><rect x="214.60" y="98.40" width="5.00" height="5.00" fill="#2563eb" opacity="0.9" stroke="#e2e8f0" stroke-width="0.5"/><rect x="220.40" y="98.40" width="5.00" height="5.00" fill="#2563eb" opacity="0.9" stroke="#e2e8f0" stroke-width="0.5"/><rect x="226.20" y="98.40" width="5.00" height="5.00" fill="#f8fafc" opacity="0.35" stroke="#e2e8f0" stroke-width="0.5"/><rect x="232.00" y="98.40" width="5.00" height="5.00" fill="#f8fafc" opacity="0.35" stroke="#e2e8f0" stroke-width="0.5"/><rect x="237.80" y="98.40" width="5.00" height="5.00" fill="#f8fafc" opacity="0.35" stroke="#e2e8f0" stroke-width="0.5"/><rect x="243.60" y="98.40" width="5.00" height="5.00" fill="#f8fafc" opacity="0.35" stroke="#e2e8f0" stroke-width="0.5"/><rect x="249.40" y="98.40" width="5.00" height="5.00" fill="#f8fafc" opacity="0.35" stroke="#e2e8f0" stroke-width="0.5"/><rect x="255.20" y="98.40" width="5.00" height="5.00" fill="#2563eb" opacity="0.9" stroke="#e2e8f0" stroke-width="0.5"/><rect x="261.00" y="98.40" width="5.00" height="5.00" fill="#f8fafc" opacity="0.35" stroke="#e2e8f0" stroke-width="0.5"/><rect x="266.80" y="98.40" width="5.00" height="5.00" fill="#f8fafc" opacity="0.35" stroke="#e2e8f0" stroke-width="0.5"/><rect x="272.60" y="98.40" width="5.00" height="5.00" fill="#2563eb" opacity="0.9" stroke="#e2e8f0" stroke-width="0.5"/>
  <rect x="174.00" y="126.00" width="5.00" height="5.00" fill="#0f766e" opacity="0.9" stroke="#e2e8f0" stroke-width="0.5"/><rect x="179.80" y="126.00" width="5.00" height="5.00" fill="#f8fafc" opacity="0.35" stroke="#e2e8f0" stroke-width="0.5"/><rect x="185.60" y="126.00" width="5.00" height="5.00" fill="#f8fafc" opacity="0.35" stroke="#e2e8f0" stroke-width="0.5"/><rect x="191.40" y="126.00" width="5.00" height="5.00" fill="#0f766e" opacity="0.9" stroke="#e2e8f0" stroke-width="0.5"/><rect x="197.20" y="126.00" width="5.00" height="5.00" fill="#f8fafc" opacity="0.35" stroke="#e2e8f0" stroke-width="0.5"/><rect x="203.00" y="126.00" width="5.00" height="5.00" fill="#f8fafc" opacity="0.35" stroke="#e2e8f0" stroke-width="0.5"/><rect x="208.80" y="126.00" width="5.00" height="5.00" fill="#f8fafc" opacity="0.35" stroke="#e2e8f0" stroke-width="0.5"/><rect x="214.60" y="126.00" width="5.00" height="5.00" fill="#f8fafc" opacity="0.35" stroke="#e2e8f0" stroke-width="0.5"/><rect x="220.40" y="126.00" width="5.00" height="5.00" fill="#f8fafc" opacity="0.35" stroke="#e2e8f0" stroke-width="0.5"/><rect x="226.20" y="126.00" width="5.00" height="5.00" fill="#0f766e" opacity="0.9" stroke="#e2e8f0" stroke-width="0.5"/><rect x="232.00" y="126.00" width="5.00" height="5.00" fill="#0f766e" opacity="0.9" stroke="#e2e8f0" stroke-width="0.5"/><rect x="237.80" y="126.00" width="5.00" height="5.00" fill="#f8fafc" opacity="0.35" stroke="#e2e8f0" stroke-width="0.5"/><rect x="243.60" y="126.00" width="5.00" height="5.00" fill="#f8fafc" opacity="0.35" stroke="#e2e8f0" stroke-width="0.5"/><rect x="249.40" y="126.00" width="5.00" height="5.00" fill="#f8fafc" opacity="0.35" stroke="#e2e8f0" stroke-width="0.5"/><rect x="255.20" y="126.00" width="5.00" height="5.00" fill="#f8fafc" opacity="0.35" stroke="#e2e8f0" stroke-width="0.5"/><rect x="261.00" y="126.00" width="5.00" height="5.00" fill="#f8fafc" opacity="0.35" stroke="#e2e8f0" stroke-width="0.5"/><rect x="266.80" y="126.00" width="5.00" height="5.00" fill="#f8fafc" opacity="0.35" stroke="#e2e8f0" stroke-width="0.5"/><rect x="272.60" y="126.00" width="5.00" height="5.00" fill="#f8fafc" opacity="0.35" stroke="#e2e8f0" stroke-width="0.5"/><rect x="174.00" y="131.80" width="5.00" height="5.00" fill="#f8fafc" opacity="0.35" stroke="#e2e8f0" stroke-width="0.5"/><rect x="179.80" y="131.80" width="5.00" height="5.00" fill="#0f766e" opacity="0.9" stroke="#e2e8f0" stroke-width="0.5"/><rect x="185.60" y="131.80" width="5.00" height="5.00" fill="#f8fafc" opacity="0.35" stroke="#e2e8f0" stroke-width="0.5"/><rect x="191.40" y="131.80" width="5.00" height="5.00" fill="#f8fafc" opacity="0.35" stroke="#e2e8f0" stroke-width="0.5"/><rect x="197.20" y="131.80" width="5.00" height="5.00" fill="#0f766e" opacity="0.9" stroke="#e2e8f0" stroke-width="0.5"/><rect x="203.00" y="131.80" width="5.00" height="5.00" fill="#f8fafc" opacity="0.35" stroke="#e2e8f0" stroke-width="0.5"/><rect x="208.80" y="131.80" width="5.00" height="5.00" fill="#f8fafc" opacity="0.35" stroke="#e2e8f0" stroke-width="0.5"/><rect x="214.60" y="131.80" width="5.00" height="5.00" fill="#f8fafc" opacity="0.35" stroke="#e2e8f0" stroke-width="0.5"/><rect x="220.40" y="131.80" width="5.00" height="5.00" fill="#f8fafc" opacity="0.35" stroke="#e2e8f0" stroke-width="0.5"/><rect x="226.20" y="131.80" width="5.00" height="5.00" fill="#f8fafc" opacity="0.35" stroke="#e2e8f0" stroke-width="0.5"/><rect x="232.00" y="131.80" width="5.00" height="5.00" fill="#0f766e" opacity="0.9" stroke="#e2e8f0" stroke-width="0.5"/><rect x="237.80" y="131.80" width="5.00" height="5.00" fill="#0f766e" opacity="0.9" stroke="#e2e8f0" stroke-width="0.5"/><rect x="243.60" y="131.80" width="5.00" height="5.00" fill="#f8fafc" opacity="0.35" stroke="#e2e8f0" stroke-width="0.5"/><rect x="249.40" y="131.80" width="5.00" height="5.00" fill="#f8fafc" opacity="0.35" stroke="#e2e8f0" stroke-width="0.5"/><rect x="255.20" y="131.80" width="5.00" height="5.00" fill="#f8fafc" opacity="0.35" stroke="#e2e8f0" stroke-width="0.5"/><rect x="261.00" y="131.80" width="5.00" height="5.00" fill="#f8fafc" opacity="0.35" stroke="#e2e8f0" stroke-width="0.5"/><rect x="266.80" y="131.80" width="5.00" height="5.00" fill="#f8fafc" opacity="0.35" stroke="#e2e8f0" stroke-width="0.5"/><rect x="272.60" y="131.80" width="5.00" height="5.00" fill="#f8fafc" opacity="0.35" stroke="#e2e8f0" stroke-width="0.5"/><rect x="174.00" y="137.60" width="5.00" height="5.00" fill="#f8fafc" opacity="0.35" stroke="#e2e8f0" stroke-width="0.5"/><rect x="179.80" y="137.60" width="5.00" height="5.00" fill="#f8fafc" opacity="0.35" stroke="#e2e8f0" stroke-width="0.5"/><rect x="185.60" y="137.60" width="5.00" height="5.00" fill="#0f766e" opacity="0.9" stroke="#e2e8f0" stroke-width="0.5"/><rect x="191.40" y="137.60" width="5.00" height="5.00" fill="#f8fafc" opacity="0.35" stroke="#e2e8f0" stroke-width="0.5"/><rect x="197.20" y="137.60" width="5.00" height="5.00" fill="#f8fafc" opacity="0.35" stroke="#e2e8f0" stroke-width="0.5"/><rect x="203.00" y="137.60" width="5.00" height="5.00" fill="#0f766e" opacity="0.9" stroke="#e2e8f0" stroke-width="0.5"/><rect x="208.80" y="137.60" width="5.00" height="5.00" fill="#f8fafc" opacity="0.35" stroke="#e2e8f0" stroke-width="0.5"/><rect x="214.60" y="137.60" width="5.00" height="5.00" fill="#f8fafc" opacity="0.35" stroke="#e2e8f0" stroke-width="0.5"/><rect x="220.40" y="137.60" width="5.00" height="5.00" fill="#f8fafc" opacity="0.35" stroke="#e2e8f0" stroke-width="0.5"/><rect x="226.20" y="137.60" width="5.00" height="5.00" fill="#0f766e" opacity="0.9" stroke="#e2e8f0" stroke-width="0.5"/><rect x="232.00" y="137.60" width="5.00" height="5.00" fill="#f8fafc" opacity="0.35" stroke="#e2e8f0" stroke-width="0.5"/><rect x="237.80" y="137.60" width="5.00" height="5.00" fill="#0f766e" opacity="0.9" stroke="#e2e8f0" stroke-width="0.5"/><rect x="243.60" y="137.60" width="5.00" height="5.00" fill="#f8fafc" opacity="0.35" stroke="#e2e8f0" stroke-width="0.5"/><rect x="249.40" y="137.60" width="5.00" height="5.00" fill="#f8fafc" opacity="0.35" stroke="#e2e8f0" stroke-width="0.5"/><rect x="255.20" y="137.60" width="5.00" height="5.00" fill="#f8fafc" opacity="0.35" stroke="#e2e8f0" stroke-width="0.5"/><rect x="261.00" y="137.60" width="5.00" height="5.00" fill="#f8fafc" opacity="0.35" stroke="#e2e8f0" stroke-width="0.5"/><rect x="266.80" y="137.60" width="5.00" height="5.00" fill="#f8fafc" opacity="0.35" stroke="#e2e8f0" stroke-width="0.5"/><rect x="272.60" y="137.60" width="5.00" height="5.00" fill="#f8fafc" opacity="0.35" stroke="#e2e8f0" stroke-width="0.5"/><rect x="174.00" y="143.40" width="5.00" height="5.00" fill="#f8fafc" opacity="0.35" stroke="#e2e8f0" stroke-width="0.5"/><rect x="179.80" y="143.40" width="5.00" height="5.00" fill="#f8fafc" opacity="0.35" stroke="#e2e8f0" stroke-width="0.5"/><rect x="185.60" y="143.40" width="5.00" height="5.00" fill="#f8fafc" opacity="0.35" stroke="#e2e8f0" stroke-width="0.5"/><rect x="191.40" y="143.40" width="5.00" height="5.00" fill="#0f766e" opacity="0.9" stroke="#e2e8f0" stroke-width="0.5"/><rect x="197.20" y="143.40" width="5.00" height="5.00" fill="#f8fafc" opacity="0.35" stroke="#e2e8f0" stroke-width="0.5"/><rect x="203.00" y="143.40" width="5.00" height="5.00" fill="#f8fafc" opacity="0.35" stroke="#e2e8f0" stroke-width="0.5"/><rect x="208.80" y="143.40" width="5.00" height="5.00" fill="#0f766e" opacity="0.9" stroke="#e2e8f0" stroke-width="0.5"/><rect x="214.60" y="143.40" width="5.00" height="5.00" fill="#f8fafc" opacity="0.35" stroke="#e2e8f0" stroke-width="0.5"/><rect x="220.40" y="143.40" width="5.00" height="5.00" fill="#f8fafc" opacity="0.35" stroke="#e2e8f0" stroke-width="0.5"/><rect x="226.20" y="143.40" width="5.00" height="5.00" fill="#f8fafc" opacity="0.35" stroke="#e2e8f0" stroke-width="0.5"/><rect x="232.00" y="143.40" width="5.00" height="5.00" fill="#f8fafc" opacity="0.35" stroke="#e2e8f0" stroke-width="0.5"/><rect x="237.80" y="143.40" width="5.00" height="5.00" fill="#f8fafc" opacity="0.35" stroke="#e2e8f0" stroke-width="0.5"/><rect x="243.60" y="143.40" width="5.00" height="5.00" fill="#0f766e" opacity="0.9" stroke="#e2e8f0" stroke-width="0.5"/><rect x="249.40" y="143.40" width="5.00" height="5.00" fill="#0f766e" opacity="0.9" stroke="#e2e8f0" stroke-width="0.5"/><rect x="255.20" y="143.40" width="5.00" height="5.00" fill="#f8fafc" opacity="0.35" stroke="#e2e8f0" stroke-width="0.5"/><rect x="261.00" y="143.40" width="5.00" height="5.00" fill="#f8fafc" opacity="0.35" stroke="#e2e8f0" stroke-width="0.5"/><rect x="266.80" y="143.40" width="5.00" height="5.00" fill="#f8fafc" opacity="0.35" stroke="#e2e8f0" stroke-width="0.5"/><rect x="272.60" y="143.40" width="5.00" height="5.00" fill="#f8fafc" opacity="0.35" stroke="#e2e8f0" stroke-width="0.5"/><rect x="174.00" y="149.20" width="5.00" height="5.00" fill="#f8fafc" opacity="0.35" stroke="#e2e8f0" stroke-width="0.5"/><rect x="179.80" y="149.20" width="5.00" height="5.00" fill="#f8fafc" opacity="0.35" stroke="#e2e8f0" stroke-width="0.5"/><rect x="185.60" y="149.20" width="5.00" height="5.00" fill="#f8fafc" opacity="0.35" stroke="#e2e8f0" stroke-width="0.5"/><rect x="191.40" y="149.20" width="5.00" height="5.00" fill="#f8fafc" opacity="0.35" stroke="#e2e8f0" stroke-width="0.5"/><rect x="197.20" y="149.20" width="5.00" height="5.00" fill="#0f766e" opacity="0.9" stroke="#e2e8f0" stroke-width="0.5"/><rect x="203.00" y="149.20" width="5.00" height="5.00" fill="#f8fafc" opacity="0.35" stroke="#e2e8f0" stroke-width="0.5"/><rect x="208.80" y="149.20" width="5.00" height="5.00" fill="#f8fafc" opacity="0.35" stroke="#e2e8f0" stroke-width="0.5"/><rect x="214.60" y="149.20" width="5.00" height="5.00" fill="#0f766e" opacity="0.9" stroke="#e2e8f0" stroke-width="0.5"/><rect x="220.40" y="149.20" width="5.00" height="5.00" fill="#f8fafc" opacity="0.35" stroke="#e2e8f0" stroke-width="0.5"/><rect x="226.20" y="149.20" width="5.00" height="5.00" fill="#f8fafc" opacity="0.35" stroke="#e2e8f0" stroke-width="0.5"/><rect x="232.00" y="149.20" width="5.00" height="5.00" fill="#f8fafc" opacity="0.35" stroke="#e2e8f0" stroke-width="0.5"/><rect x="237.80" y="149.20" width="5.00" height="5.00" fill="#f8fafc" opacity="0.35" stroke="#e2e8f0" stroke-width="0.5"/><rect x="243.60" y="149.20" width="5.00" height="5.00" fill="#f8fafc" opacity="0.35" stroke="#e2e8f0" stroke-width="0.5"/><rect x="249.40" y="149.20" width="5.00" height="5.00" fill="#0f766e" opacity="0.9" stroke="#e2e8f0" stroke-width="0.5"/><rect x="255.20" y="149.20" width="5.00" height="5.00" fill="#0f766e" opacity="0.9" stroke="#e2e8f0" stroke-width="0.5"/><rect x="261.00" y="149.20" width="5.00" height="5.00" fill="#f8fafc" opacity="0.35" stroke="#e2e8f0" stroke-width="0.5"/><rect x="266.80" y="149.20" width="5.00" height="5.00" fill="#f8fafc" opacity="0.35" stroke="#e2e8f0" stroke-width="0.5"/><rect x="272.60" y="149.20" width="5.00" height="5.00" fill="#f8fafc" opacity="0.35" stroke="#e2e8f0" stroke-width="0.5"/><rect x="174.00" y="155.00" width="5.00" height="5.00" fill="#f8fafc" opacity="0.35" stroke="#e2e8f0" stroke-width="0.5"/><rect x="179.80" y="155.00" width="5.00" height="5.00" fill="#f8fafc" opacity="0.35" stroke="#e2e8f0" stroke-width="0.5"/><rect x="185.60" y="155.00" width="5.00" height="5.00" fill="#f8fafc" opacity="0.35" stroke="#e2e8f0" stroke-width="0.5"/><rect x="191.40" y="155.00" width="5.00" height="5.00" fill="#f8fafc" opacity="0.35" stroke="#e2e8f0" stroke-width="0.5"/><rect x="197.20" y="155.00" width="5.00" height="5.00" fill="#f8fafc" opacity="0.35" stroke="#e2e8f0" stroke-width="0.5"/><rect x="203.00" y="155.00" width="5.00" height="5.00" fill="#0f766e" opacity="0.9" stroke="#e2e8f0" stroke-width="0.5"/><rect x="208.80" y="155.00" width="5.00" height="5.00" fill="#f8fafc" opacity="0.35" stroke="#e2e8f0" stroke-width="0.5"/><rect x="214.60" y="155.00" width="5.00" height="5.00" fill="#f8fafc" opacity="0.35" stroke="#e2e8f0" stroke-width="0.5"/><rect x="220.40" y="155.00" width="5.00" height="5.00" fill="#0f766e" opacity="0.9" stroke="#e2e8f0" stroke-width="0.5"/><rect x="226.20" y="155.00" width="5.00" height="5.00" fill="#f8fafc" opacity="0.35" stroke="#e2e8f0" stroke-width="0.5"/><rect x="232.00" y="155.00" width="5.00" height="5.00" fill="#f8fafc" opacity="0.35" stroke="#e2e8f0" stroke-width="0.5"/><rect x="237.80" y="155.00" width="5.00" height="5.00" fill="#f8fafc" opacity="0.35" stroke="#e2e8f0" stroke-width="0.5"/><rect x="243.60" y="155.00" width="5.00" height="5.00" fill="#0f766e" opacity="0.9" stroke="#e2e8f0" stroke-width="0.5"/><rect x="249.40" y="155.00" width="5.00" height="5.00" fill="#f8fafc" opacity="0.35" stroke="#e2e8f0" stroke-width="0.5"/><rect x="255.20" y="155.00" width="5.00" height="5.00" fill="#0f766e" opacity="0.9" stroke="#e2e8f0" stroke-width="0.5"/><rect x="261.00" y="155.00" width="5.00" height="5.00" fill="#f8fafc" opacity="0.35" stroke="#e2e8f0" stroke-width="0.5"/><rect x="266.80" y="155.00" width="5.00" height="5.00" fill="#f8fafc" opacity="0.35" stroke="#e2e8f0" stroke-width="0.5"/><rect x="272.60" y="155.00" width="5.00" height="5.00" fill="#f8fafc" opacity="0.35" stroke="#e2e8f0" stroke-width="0.5"/><rect x="174.00" y="160.80" width="5.00" height="5.00" fill="#0f766e" opacity="0.9" stroke="#e2e8f0" stroke-width="0.5"/><rect x="179.80" y="160.80" width="5.00" height="5.00" fill="#f8fafc" opacity="0.35" stroke="#e2e8f0" stroke-width="0.5"/><rect x="185.60" y="160.80" width="5.00" height="5.00" fill="#f8fafc" opacity="0.35" stroke="#e2e8f0" stroke-width="0.5"/><rect x="191.40" y="160.80" width="5.00" height="5.00" fill="#f8fafc" opacity="0.35" stroke="#e2e8f0" stroke-width="0.5"/><rect x="197.20" y="160.80" width="5.00" height="5.00" fill="#f8fafc" opacity="0.35" stroke="#e2e8f0" stroke-width="0.5"/><rect x="203.00" y="160.80" width="5.00" height="5.00" fill="#f8fafc" opacity="0.35" stroke="#e2e8f0" stroke-width="0.5"/><rect x="208.80" y="160.80" width="5.00" height="5.00" fill="#0f766e" opacity="0.9" stroke="#e2e8f0" stroke-width="0.5"/><rect x="214.60" y="160.80" width="5.00" height="5.00" fill="#f8fafc" opacity="0.35" stroke="#e2e8f0" stroke-width="0.5"/><rect x="220.40" y="160.80" width="5.00" height="5.00" fill="#f8fafc" opacity="0.35" stroke="#e2e8f0" stroke-width="0.5"/><rect x="226.20" y="160.80" width="5.00" height="5.00" fill="#f8fafc" opacity="0.35" stroke="#e2e8f0" stroke-width="0.5"/><rect x="232.00" y="160.80" width="5.00" height="5.00" fill="#f8fafc" opacity="0.35" stroke="#e2e8f0" stroke-width="0.5"/><rect x="237.80" y="160.80" width="5.00" height="5.00" fill="#f8fafc" opacity="0.35" stroke="#e2e8f0" stroke-width="0.5"/><rect x="243.60" y="160.80" width="5.00" height="5.00" fill="#f8fafc" opacity="0.35" stroke="#e2e8f0" stroke-width="0.5"/><rect x="249.40" y="160.80" width="5.00" height="5.00" fill="#f8fafc" opacity="0.35" stroke="#e2e8f0" stroke-width="0.5"/><rect x="255.20" y="160.80" width="5.00" height="5.00" fill="#f8fafc" opacity="0.35" stroke="#e2e8f0" stroke-width="0.5"/><rect x="261.00" y="160.80" width="5.00" height="5.00" fill="#0f766e" opacity="0.9" stroke="#e2e8f0" stroke-width="0.5"/><rect x="266.80" y="160.80" width="5.00" height="5.00" fill="#0f766e" opacity="0.9" stroke="#e2e8f0" stroke-width="0.5"/><rect x="272.60" y="160.80" width="5.00" height="5.00" fill="#f8fafc" opacity="0.35" stroke="#e2e8f0" stroke-width="0.5"/><rect x="174.00" y="166.60" width="5.00" height="5.00" fill="#f8fafc" opacity="0.35" stroke="#e2e8f0" stroke-width="0.5"/><rect x="179.80" y="166.60" width="5.00" height="5.00" fill="#0f766e" opacity="0.9" stroke="#e2e8f0" stroke-width="0.5"/><rect x="185.60" y="166.60" width="5.00" height="5.00" fill="#f8fafc" opacity="0.35" stroke="#e2e8f0" stroke-width="0.5"/><rect x="191.40" y="166.60" width="5.00" height="5.00" fill="#f8fafc" opacity="0.35" stroke="#e2e8f0" stroke-width="0.5"/><rect x="197.20" y="166.60" width="5.00" height="5.00" fill="#f8fafc" opacity="0.35" stroke="#e2e8f0" stroke-width="0.5"/><rect x="203.00" y="166.60" width="5.00" height="5.00" fill="#f8fafc" opacity="0.35" stroke="#e2e8f0" stroke-width="0.5"/><rect x="208.80" y="166.60" width="5.00" height="5.00" fill="#f8fafc" opacity="0.35" stroke="#e2e8f0" stroke-width="0.5"/><rect x="214.60" y="166.60" width="5.00" height="5.00" fill="#0f766e" opacity="0.9" stroke="#e2e8f0" stroke-width="0.5"/><rect x="220.40" y="166.60" width="5.00" height="5.00" fill="#f8fafc" opacity="0.35" stroke="#e2e8f0" stroke-width="0.5"/><rect x="226.20" y="166.60" width="5.00" height="5.00" fill="#f8fafc" opacity="0.35" stroke="#e2e8f0" stroke-width="0.5"/><rect x="232.00" y="166.60" width="5.00" height="5.00" fill="#f8fafc" opacity="0.35" stroke="#e2e8f0" stroke-width="0.5"/><rect x="237.80" y="166.60" width="5.00" height="5.00" fill="#f8fafc" opacity="0.35" stroke="#e2e8f0" stroke-width="0.5"/><rect x="243.60" y="166.60" width="5.00" height="5.00" fill="#f8fafc" opacity="0.35" stroke="#e2e8f0" stroke-width="0.5"/><rect x="249.40" y="166.60" width="5.00" height="5.00" fill="#f8fafc" opacity="0.35" stroke="#e2e8f0" stroke-width="0.5"/><rect x="255.20" y="166.60" width="5.00" height="5.00" fill="#f8fafc" opacity="0.35" stroke="#e2e8f0" stroke-width="0.5"/><rect x="261.00" y="166.60" width="5.00" height="5.00" fill="#f8fafc" opacity="0.35" stroke="#e2e8f0" stroke-width="0.5"/><rect x="266.80" y="166.60" width="5.00" height="5.00" fill="#0f766e" opacity="0.9" stroke="#e2e8f0" stroke-width="0.5"/><rect x="272.60" y="166.60" width="5.00" height="5.00" fill="#0f766e" opacity="0.9" stroke="#e2e8f0" stroke-width="0.5"/><rect x="174.00" y="172.40" width="5.00" height="5.00" fill="#f8fafc" opacity="0.35" stroke="#e2e8f0" stroke-width="0.5"/><rect x="179.80" y="172.40" width="5.00" height="5.00" fill="#f8fafc" opacity="0.35" stroke="#e2e8f0" stroke-width="0.5"/><rect x="185.60" y="172.40" width="5.00" height="5.00" fill="#0f766e" opacity="0.9" stroke="#e2e8f0" stroke-width="0.5"/><rect x="191.40" y="172.40" width="5.00" height="5.00" fill="#f8fafc" opacity="0.35" stroke="#e2e8f0" stroke-width="0.5"/><rect x="197.20" y="172.40" width="5.00" height="5.00" fill="#f8fafc" opacity="0.35" stroke="#e2e8f0" stroke-width="0.5"/><rect x="203.00" y="172.40" width="5.00" height="5.00" fill="#f8fafc" opacity="0.35" stroke="#e2e8f0" stroke-width="0.5"/><rect x="208.80" y="172.40" width="5.00" height="5.00" fill="#f8fafc" opacity="0.35" stroke="#e2e8f0" stroke-width="0.5"/><rect x="214.60" y="172.40" width="5.00" height="5.00" fill="#f8fafc" opacity="0.35" stroke="#e2e8f0" stroke-width="0.5"/><rect x="220.40" y="172.40" width="5.00" height="5.00" fill="#0f766e" opacity="0.9" stroke="#e2e8f0" stroke-width="0.5"/><rect x="226.20" y="172.40" width="5.00" height="5.00" fill="#f8fafc" opacity="0.35" stroke="#e2e8f0" stroke-width="0.5"/><rect x="232.00" y="172.40" width="5.00" height="5.00" fill="#f8fafc" opacity="0.35" stroke="#e2e8f0" stroke-width="0.5"/><rect x="237.80" y="172.40" width="5.00" height="5.00" fill="#f8fafc" opacity="0.35" stroke="#e2e8f0" stroke-width="0.5"/><rect x="243.60" y="172.40" width="5.00" height="5.00" fill="#f8fafc" opacity="0.35" stroke="#e2e8f0" stroke-width="0.5"/><rect x="249.40" y="172.40" width="5.00" height="5.00" fill="#f8fafc" opacity="0.35" stroke="#e2e8f0" stroke-width="0.5"/><rect x="255.20" y="172.40" width="5.00" height="5.00" fill="#f8fafc" opacity="0.35" stroke="#e2e8f0" stroke-width="0.5"/><rect x="261.00" y="172.40" width="5.00" height="5.00" fill="#0f766e" opacity="0.9" stroke="#e2e8f0" stroke-width="0.5"/><rect x="266.80" y="172.40" width="5.00" height="5.00" fill="#f8fafc" opacity="0.35" stroke="#e2e8f0" stroke-width="0.5"/><rect x="272.60" y="172.40" width="5.00" height="5.00" fill="#0f766e" opacity="0.9" stroke="#e2e8f0" stroke-width="0.5"/>
</svg>